{"asset":{"version":"2.0","generator":"babylon.js glTF exporter for 3dsmax 2023 v20250403.4"},"scene":0,"scenes":[{"nodes":[0]}],"nodes":[{"mesh":0,"scale":[2.54,2.54,2.54],"name":"ICP992"}],"meshes":[{"primitives":[{"attributes":{"POSITION":1,"NORMAL":2,"TEXCOORD_0":3},"indices":0,"material":0}],"name":"ICP992"}],"accessors":[{"bufferView":0,"componentType":5123,"count":492,"type":"SCALAR","name":"accessorIndices"},{"bufferView":1,"componentType":5126,"count":168,"max":[5.889,0.0137805939,5.905513],"min":[-5.888996,-0.0137786865,-5.90551043],"type":"VEC3","name":"accessorPositions"},{"bufferView":1,"byteOffset":2016,"componentType":5126,"count":168,"type":"VEC3","name":"accessorNormals"},{"bufferView":2,"componentType":5126,"count":168,"type":"VEC2","name":"accessorUVs"}],"bufferViews":[{"buffer":0,"byteLength":984,"name":"bufferViewScalar"},{"buffer":0,"byteOffset":984,"byteLength":4032,"byteStride":12,"name":"bufferViewFloatVec3"},{"buffer":0,"byteOffset":5016,"byteLength":1344,"byteStride":8,"name":"bufferViewFloatVec2"}],"buffers":[{"uri":"yuanpian1.bin","byteLength":6360}],"materials":[{"pbrMetallicRoughness":{"baseColorTexture":{"index":0},"metallicFactor":0.0,"roughnessFactor":0.5},"name":"Material #219"}],"textures":[{"sampler":0,"source":0,"name":"300yuanpiandif.jpg"}],"images":[{"uri":"300yuanpiandif.jpg"}],"samplers":[{"magFilter":9729,"minFilter":9987}]}